<?xml version="1.0" encoding="UTF-8" standalone="no"?>
<svg xmlns="http://www.w3.org/2000/svg" width="256" height="256" viewBox="0 0 256 256">
  <g>
    <path fill="#F37726" d="M128 27.8c-55.3 0-100 44.7-100 100s44.7 100 100 100 100-44.7 100-100-44.7-100-100-100z"/>
    <path fill="#FFFFFF" d="M128 33.8c-51.9 0-94 42.1-94 94s42.1 94 94 94 94-42.1 94-94-42.1-94-94-94zm0 172.8c-43.5 0-78.8-35.3-78.8-78.8s35.3-78.8 78.8-78.8 78.8 35.3 78.8 78.8-35.3 78.8-78.8 78.8z"/>
    <path fill="#F37726" d="M128 44.1c-46.2 0-83.7 37.5-83.7 83.7s37.5 83.7 83.7 83.7 83.7-37.5 83.7-83.7-37.5-83.7-83.7-83.7zm0 151.6c-37.4 0-67.9-30.5-67.9-67.9s30.5-67.9 67.9-67.9 67.9 30.5 67.9 67.9-30.5 67.9-67.9 67.9z"/>
    <path fill="#FFFFFF" d="M153.5 149.5l-42.8 24.7c-1.3 0.8-2.8-0.2-2.8-1.7V97.5c0-1.5 1.5-2.5 2.8-1.7l42.8 24.7c1.3 0.8 1.3 2.6 0 3.4l-42.8 24.7c-1.3 0.8-1.3 2.6 0 3.4l42.8 24.7c1.3 0.8 1.3 2.6 0 3.4z"/>
  </g>
</svg> 