<?xml version="1.0" encoding="UTF-8" standalone="no"?>
<svg xmlns="http://www.w3.org/2000/svg" width="256" height="256" viewBox="0 0 256 256">
  <g>
    <path fill="#FFD43B" d="M127.6 1.64c-64.08 0-60.1 27.75-60.1 27.75v28.74h61.18v8.68H41.52S1.45 61.4 1.45 126.6c0 65.2 34.87 62.95 34.87 62.95h20.8v-30.28s-1.12-35.05 34.5-35.05h59.33s33.32.55 33.32-32.14v-54.1S191.5 1.64 127.6 1.64zm-33.64 19.54c6.1 0 11.03 4.93 11.03 11.02 0 6.1-4.94 11.03-11.03 11.03-6.08 0-11.02-4.94-11.02-11.03 0-6.1 4.94-11.02 11.02-11.02z"/>
    <path fill="#3776AB" d="M128.38 254.36c64.1 0 60.1-27.75 60.1-27.75v-28.74h-61.17v-8.68h87.15s40.08 4.62 40.08-60.58c0-65.2-34.87-62.95-34.87-62.95h-20.8v30.28s1.12 35.05-34.5 35.05H105.1s-33.32-.55-33.32 32.15v54.1s-7.22 36.12 56.6 36.12zm33.65-19.54c-6.1 0-11.03-4.93-11.03-11.02 0-6.1 4.94-11.03 11.03-11.03 6.08 0 11.02 4.94 11.02 11.03 0 6.1-4.94 11.02-11.02 11.02z"/>
  </g>
</svg> 